HIERARCHY
ROOT Hips
{
 OFFSET 0.000000 0.000000 0.000000
 CHANNELS 6 Xposition Yposition Zposition Yrotation Xrotation Zrotation
 JOINT Chest
 {
  OFFSET 0.000000 9.585900 0.002600
  CHANNELS 3 Yrotation Xrotation Zrotation
  JOINT Chest2
  {
   OFFSET 0.000000 9.601200 -0.005300
   CHANNELS 3 Yrotation Xrotation Zrotation
   JOINT Chest3
   {
    OFFSET 0.000000 9.561800 0.000000
    CHANNELS 3 Yrotation Xrotation Zrotation
    JOINT Chest4
    {
     OFFSET 0.000000 9.552100 0.000000
     CHANNELS 3 Yrotation Xrotation Zrotation
     JOINT Neck
     {
      OFFSET 0.000000 14.453000 0.000000
      CHANNELS 3 Yrotation Xrotation Zrotation
      JOINT Head
      {
       OFFSET 0.000000 8.936500 -0.011300
       CHANNELS 3 Yrotation Xrotation Zrotation
       End Site
       {
        OFFSET 0.000000 17.073600 -0.006000
       }
      }
     }
     JOINT RightCollar
     {
      OFFSET -2.921100 9.558500 0.000000
      CHANNELS 3 Yrotation Xrotation Zrotation
      JOINT RightShoulder
      {
       OFFSET -13.519700 0.000000 0.000000
       CHANNELS 3 Yrotation Xrotation Zrotation
       JOINT RightElbow
       {
        OFFSET 0.000000 -29.696600 0.000000
        CHANNELS 3 Yrotation Xrotation Zrotation
        JOINT RightWrist
        {
         OFFSET 0.000000 -24.004700 0.000000
         CHANNELS 3 Yrotation Xrotation Zrotation
         End Site
         {
          OFFSET 0.000000 -17.728500 0.000000
         }
        }
       }
      }
     }
     JOINT LeftCollar
     {
      OFFSET 2.921100 9.558500 0.000000
      CHANNELS 3 Yrotation Xrotation Zrotation
      JOINT LeftShoulder
      {
       OFFSET 13.519700 0.000000 0.000000
       CHANNELS 3 Yrotation Xrotation Zrotation
       JOINT LeftElbow
       {
        OFFSET 0.000000 -29.696600 0.000000
        CHANNELS 3 Yrotation Xrotation Zrotation
        JOINT LeftWrist
        {
         OFFSET 0.000000 -24.004700 0.000000
         CHANNELS 3 Yrotation Xrotation Zrotation
         End Site
         {
          OFFSET 0.000000 -17.728500 0.000000
         }
        }
       }
      }
     }
    }
   }
  }
 }
 JOINT RightHip
 {
  OFFSET -7.771700 -0.012900 -0.001300
  CHANNELS 3 Yrotation Xrotation Zrotation
  JOINT RightKnee
  {
   OFFSET 0.000000 -40.869800 0.001200
   CHANNELS 3 Yrotation Xrotation Zrotation
   JOINT RightAnkle
   {
    OFFSET 0.000000 -39.717900 0.002100
    CHANNELS 3 Yrotation Xrotation Zrotation
    JOINT RightToe
    {
     OFFSET 0.000000 -4.965400 11.033500
     CHANNELS 3 Yrotation Xrotation Zrotation
     End Site
     {
      OFFSET 0.000000 -1.423100 5.872300
     }
    }
   }
  }
 }
 JOINT LeftHip
 {
  OFFSET 7.771700 -0.012900 -0.001300
  CHANNELS 3 Yrotation Xrotation Zrotation
  JOINT LeftKnee
  {
   OFFSET 0.000000 -40.869800 0.001200
   CHANNELS 3 Yrotation Xrotation Zrotation
   JOINT LeftAnkle
   {
    OFFSET 0.000000 -39.717900 0.002100
    CHANNELS 3 Yrotation Xrotation Zrotation
    JOINT LeftToe
    {
     OFFSET 0.000000 -4.965400 11.033500
     CHANNELS 3 Yrotation Xrotation Zrotation
     End Site
     {
      OFFSET 0.000000 -1.423100 5.872300
     }
    }
   }
  }
 }
}
MOTION
Frames: 7
Frame Time: 0.008333
0.000000 85.388000 0.000000 0.000000 -5.767877 0.000000 0.000000 11.653817 0.000000 0.000000 -5.885947 0.000000 0.000000 -0.000000 0.000000 0.000000 -0.000000 0.000000 0.000000 12.528835 0.000000 0.000000 0.711642 0.000000 0.000000 -0.000000 0.000000 0.000000 0.000000 -90.000000 0.000000 -2.309062 0.000000 0.000000 2.309062 0.000000 0.000000 -0.000000 0.000000 0.000000 -0.000000 90.000000 0.000000 -2.309062 0.000000 0.000000 2.309062 0.000000 0.000000 8.520406 0.000000 0.000000 1.905762 0.000000 -0.000000 -4.658285 0.000000 0.000000 -0.000000 0.000000 0.000000 8.520406 0.000000 0.000000 1.905762 0.000000 -0.000000 -4.658285 0.000000 0.000000 -0.000000 0.000000
-91.883339 57.955951 91.298989 178.213703 -29.343325 -0.639220 1.932544 22.041578 2.727393 0.197567 3.058351 0.368585 0.420041 4.984415 0.606217 1.604408 18.634726 2.504720 -0.050706 7.790264 -3.682154 1.739194 -21.230457 -7.256817 4.188111 -4.077120 -1.057213 7.802362 -13.562399 -20.905650 -178.693225 -76.403087 -146.689426 10.927301 -9.341319 -40.306752 -5.981793 -4.215262 -2.640426 6.770336 -4.512103 -7.699672 -47.439728 -87.576340 22.147150 -6.482906 -1.978482 10.666786 5.742823 -45.871374 -6.482763 -5.677937 70.289921 -8.061293 7.772512 18.624173 8.649840 0.155477 -14.229372 -0.227855 -6.962892 -43.468657 0.186667 28.168672 66.413967 26.180502 -14.859668 4.735048 -2.481827 -0.128705 0.290865 -0.050575
-91.892180 57.956981 91.295414 178.231809 -29.337180 -0.639590 2.052963 22.056789 2.775857 0.208319 3.059746 0.370796 0.370013 4.970205 0.608576 1.643420 18.633002 2.518937 -0.200198 8.032689 -3.542171 1.357663 -20.797231 -6.890833 4.100413 -4.078097 -1.023016 7.627884 -13.413558 -20.595140 -179.360225 -76.449575 -146.185274 10.921651 -9.290759 -40.311972 -5.963869 -4.143309 -2.609726 6.846847 -4.577793 -7.810296 -48.345274 -87.583610 23.211457 -6.445131 -1.990637 10.737268 5.758565 -45.873944 -6.510239 -5.488284 70.305152 -7.880905 7.725447 18.616345 8.663833 0.201737 -14.232065 -0.239371 -6.962243 -43.475895 0.167384 28.175981 66.422278 26.176502 -14.853621 4.725557 -2.458050 -0.138349 0.282560 -0.055968
-91.903045 57.958483 91.291365 178.272211 -29.328652 -0.643720 2.111724 22.057953 2.802702 0.215410 3.059652 0.372833 0.338662 4.964555 0.609078 1.701152 18.631711 2.534973 -0.388403 8.294308 -3.404921 0.902762 -20.328930 -6.513046 4.098134 -4.031614 -0.995161 7.391198 -13.317943 -20.345423 179.956344 -76.481467 -145.656812 10.917716 -9.251245 -40.312533 -5.956328 -4.081598 -2.571616 6.921376 -4.622610 -7.910376 -48.902119 -87.598979 23.905868 -6.408071 -2.000893 10.799679 5.754916 -45.877264 -6.542670 -5.332097 70.320901 -7.740003 7.701077 18.601919 8.678556 0.202165 -14.233835 -0.236993 -6.945488 -43.483684 0.112130 28.179777 66.421872 26.189537 -14.844580 4.709525 -2.431392 -0.152446 0.284230 -0.063448
-91.914804 57.961016 91.286137 178.304040 -29.324951 -0.641827 2.157575 22.059120 2.824654 0.220051 3.058698 0.374499 0.281979 4.959638 0.602651 1.797227 18.630745 2.553643 -0.612044 8.570210 -3.273610 0.383533 -19.833776 -6.132506 4.050509 -4.010102 -0.981073 7.223661 -13.211984 -20.132911 179.268370 -76.496469 -145.116244 10.915874 -9.228806 -40.306323 -5.977519 -4.045475 -2.536511 7.017995 -4.638188 -7.981501 -49.158005 -87.624723 24.273549 -6.373313 -2.011626 10.852799 5.676899 -45.881472 -6.500177 -5.266262 70.328525 -7.755859 7.717024 18.585847 8.684414 0.191198 -14.234885 -0.211695 -6.878750 -43.480982 0.012713 28.181459 66.405302 26.232923 -14.822527 4.699147 -2.398547 -0.185407 0.284045 -0.077967
-91.927295 57.963627 91.281515 178.339352 -29.316151 -0.640811 2.179487 22.053368 2.837214 0.240883 3.056532 0.379607 0.289815 4.963239 0.602815 1.767732 18.622443 2.559466 -0.817992 8.854023 -3.156162 -0.190227 -19.317490 -5.754291 4.011676 -4.005422 -0.975744 7.127678 -13.103114 -19.967326 178.582412 -76.494011 -144.570538 10.917033 -9.224285 -40.293897 -5.945086 -4.020121 -2.510686 7.111288 -4.641170 -8.021966 -49.299653 -87.661862 24.496453 -6.344624 -2.024596 10.894621 5.587288 -45.891659 -6.464125 -5.181459 70.336874 -7.745265 7.712559 18.574089 8.694499 0.193077 -14.235552 -0.206796 -6.838472 -43.485086 -0.063986 28.192641 66.389732 26.267192 -14.820499 4.693900 -2.373781 -0.200282 0.281262 -0.086114
-91.943381 57.967280 91.275555 178.380986 -29.317607 -0.625295 2.149198 22.056988 2.809975 0.297184 3.051284 0.392223 0.358805 4.959993 0.616062 1.672967 18.624875 2.556124 -1.056338 9.141514 -3.044712 -0.814180 -18.781892 -5.379216 4.011776 -3.983150 -0.976830 7.018726 -13.027723 -19.849859 177.935903 -76.476006 -144.053448 10.918246 -9.231802 -40.279772 -5.911280 -4.002510 -2.482025 7.194017 -4.636650 -8.030920 -49.603194 -87.713086 24.852256 -6.322513 -2.036622 10.923356 5.494006 -45.892349 -6.433741 -5.199741 70.346890 -7.859855 7.744208 18.553671 8.728683 0.194496 -14.235083 -0.210239 -6.763481 -43.478232 -0.190079 28.196010 66.367222 26.311203 -14.803188 4.693040 -2.350754 -0.214682 0.277465 -0.091762
